<?xml version="1.0" encoding="utf-8"?>
<svg id="master-artboard" viewBox="0 0 1400 980" version="1.1" xmlns="http://www.w3.org/2000/svg" x="0px" y="0px" style="enable-background:new 0 0 1400 980;" width="1400px" height="980px"><rect id="ee-background" x="0" y="0" width="1400" height="980" style="fill: white; fill-opacity: 0; pointer-events: none;"/><path d="M 167.73110961914062 126.27000427246094 C 167.73110961914062 129.09666442871094 166.96444702148438 131.25999450683594 165.4311065673828 132.75999450683594 C 163.8977813720703 134.25332641601562 161.68777465820312 135 158.80111694335938 135 L 154.0611114501953 135 L 154.0611114501953 117.87000274658203 L 159.3111114501953 117.87000274658203 C 161.9711151123047 117.87000274658203 164.04110717773438 118.6066665649414 165.5211181640625 120.08000183105469 C 166.99444580078125 121.55999755859375 167.73110961914062 123.62333679199219 167.73110961914062 126.27000427246094 M 165.62110900878906 126.33999633789062 C 165.62110900878906 124.1066665649414 165.0611114501953 122.42333221435547 163.9411163330078 121.29000091552734 C 162.82110595703125 120.15666961669922 161.15444946289062 119.58999633789062 158.9411163330078 119.58999633789062 L 156.05111694335938 119.58999633789062 L 156.05111694335938 133.27999877929688 L 158.4711151123047 133.27999877929688 C 160.85110473632812 133.27999877929688 162.6377716064453 132.69667053222656 163.83111572265625 131.52999877929688 C 165.02444458007812 130.35665893554688 165.62110900878906 128.6266632080078 165.62110900878906 126.33999633789062 ZM 182.44435119628906 135 L 180.30435180664062 129.5500030517578 L 173.44435119628906 129.5500030517578 L 171.3343505859375 135 L 169.31434631347656 135 L 176.0843505859375 117.80000305175781 L 177.76434326171875 117.80000305175781 L 184.5043487548828 135 L 182.44435119628906 135 M 179.68434143066406 127.76000213623047 L 177.69435119628906 122.44999694824219 C 177.43434143066406 121.77666473388672 177.1676788330078 120.95333099365234 176.89434814453125 119.97999572753906 C 176.72100830078125 120.72666931152344 176.47434997558594 121.55000305175781 176.1543426513672 122.44999694824219 L 174.14434814453125 127.76000213623047 L 179.68434143066406 127.76000213623047 Z" transform="matrix(20.6854248046875, 0, 0, 20.6854248046875, -2450.577392578125, -2146.971923828125)" style="fill: rgb(2, 0, 51); white-space: pre; color: rgb(51, 51, 51); stroke: rgb(219, 22, 0);"/><g transform="matrix(6.833716869354249, 0, 0, 5.893851280212402, -395.37277221679676, -113.3277747300131)"><g id="g-3" transform="matrix(1, 0, 0, 1, 0, 0)">
	<g id="g-4">
		<path class="st0" d="M58,49h100v100H58V49z" style="fill: rgb(20, 32, 198);"/>
	</g>
</g></g><path d="M 142.44345092773438 225 L 137.82345581054688 225 L 130.3734588623047 212.0399932861328 L 130.26345825195312 212.0399932861328 C 130.41012573242188 214.32666015625 130.48345947265625 215.9600067138672 130.48345947265625 216.94000244140625 L 130.48345947265625 225 L 127.24346160888672 225 L 127.24346160888672 207.8699951171875 L 131.82345581054688 207.8699951171875 L 139.26345825195312 220.6999969482422 L 139.3434600830078 220.6999969482422 C 139.23011779785156 218.47332763671875 139.1734619140625 216.89999389648438 139.1734619140625 215.97999572753906 L 139.1734619140625 207.8699951171875 L 142.44345092773438 207.8699951171875 L 142.44345092773438 225 ZM 156.86497497558594 220.24000549316406 C 156.86497497558594 221.7866668701172 156.3083038330078 223.0066680908203 155.19497680664062 223.89999389648438 C 154.08163452148438 224.7866668701172 152.53163146972656 225.22999572753906 150.5449676513672 225.22999572753906 C 148.7183074951172 225.22999572753906 147.1016387939453 224.8866729736328 145.69497680664062 224.1999969482422 L 145.69497680664062 220.8300018310547 C 146.85496520996094 221.3433380126953 147.83497619628906 221.7066650390625 148.6349639892578 221.9199981689453 C 149.43496704101562 222.1266632080078 150.16497802734375 222.22999572753906 150.82496643066406 222.22999572753906 C 151.62496948242188 222.22999572753906 152.23831176757812 222.0800018310547 152.66497802734375 221.77999877929688 C 153.09164428710938 221.47332763671875 153.3049774169922 221.02000427246094 153.3049774169922 220.4199981689453 C 153.3049774169922 220.0800018310547 153.21163940429688 219.77999877929688 153.02496337890625 219.52000427246094 C 152.83163452148438 219.25999450683594 152.5549774169922 219.00999450683594 152.19497680664062 218.77000427246094 C 151.82830810546875 218.52333068847656 151.0883026123047 218.1366729736328 149.9749755859375 217.61000061035156 C 148.9282989501953 217.11666870117188 148.14163208007812 216.64334106445312 147.61497497558594 216.19000244140625 C 147.094970703125 215.73666381835938 146.6782989501953 215.2100067138672 146.36497497558594 214.61000061035156 C 146.0516357421875 214.00332641601562 145.8949737548828 213.3000030517578 145.8949737548828 212.5 C 145.8949737548828 210.97999572753906 146.40830993652344 209.7866668701172 147.43496704101562 208.9199981689453 C 148.46163940429688 208.05332946777344 149.8816375732422 207.6199951171875 151.69497680664062 207.6199951171875 C 152.5883026123047 207.6199951171875 153.4383087158203 207.72666931152344 154.24496459960938 207.94000244140625 C 155.0516357421875 208.14666748046875 155.89830017089844 208.44332885742188 156.78497314453125 208.8300018310547 L 155.61497497558594 211.64999389648438 C 154.69497680664062 211.27667236328125 153.9383087158203 211.01666259765625 153.344970703125 210.8699951171875 C 152.74496459960938 210.71665954589844 152.15496826171875 210.63999938964844 151.57496643066406 210.63999938964844 C 150.8883056640625 210.63999938964844 150.36163330078125 210.8000030517578 149.99496459960938 211.1199951171875 C 149.62831115722656 211.44667053222656 149.44497680664062 211.86666870117188 149.44497680664062 212.3800048828125 C 149.44497680664062 212.6999969482422 149.518310546875 212.97999572753906 149.66497802734375 213.22000122070312 C 149.81829833984375 213.45333862304688 150.0549774169922 213.68333435058594 150.37496948242188 213.91000366210938 C 150.70162963867188 214.1300048828125 151.4716339111328 214.52999877929688 152.68496704101562 215.11000061035156 C 154.28497314453125 215.8766632080078 155.3816375732422 216.64334106445312 155.9749755859375 217.41000366210938 C 156.56829833984375 218.18333435058594 156.86497497558594 219.1266632080078 156.86497497558594 220.24000549316406 Z" transform="matrix(20.391210556030273, 0, 0, 20.391210556030273, -2545.932861328125, -3949.26123046875)" style="fill: rgb(254, 252, 255); white-space: pre; color: rgb(51, 51, 51); stroke: rgb(48, 16, 20); stroke-opacity: 1; fill-opacity: 1;"/></svg>